<svg width="155" height="32" viewBox="0 0 155 32" fill="none" xmlns="http://www.w3.org/2000/svg">
<path d="M35.9268 0.102417C38.2607 0.102417 40.2867 0.102417 42.439 0.102417C42.4944 0.589839 42.5807 1.0003 42.5807 1.40791C42.5868 8.24607 42.6176 15.0842 42.5653 21.9195C42.5437 24.8441 41.5184 27.4437 38.9443 29.305C36.1485 31.3259 33.0201 31.9758 29.5469 31.0836C25.0022 29.915 22.2864 26.6028 22.1817 21.7086C22.1078 18.2425 22.1632 14.7764 22.1602 11.3103C22.1602 8.17766 22.1602 5.0422 22.1602 1.90958C22.1602 1.53048 22.1663 1.14852 22.1879 0.772266C22.2125 0.336151 22.4434 0.042558 22.9423 0.0397076C24.685 0.0283059 26.4278 0.0283059 28.1705 0.0368572C28.6632 0.0397076 28.9157 0.316198 28.9434 0.755163C28.9711 1.17988 28.9773 1.61029 28.9773 2.035C28.9803 8.20902 28.9773 14.3802 28.9803 20.5542C28.9803 21.2668 28.968 21.9823 29.0573 22.6892C29.2513 24.2141 30.5076 25.2802 32.1395 25.3743C33.8545 25.4712 35.3109 24.5191 35.6404 22.9856C35.819 22.1533 35.9083 21.2925 35.9083 20.4459C35.9298 14.2719 35.9206 8.1007 35.9206 1.92669C35.9268 1.36515 35.9268 0.806471 35.9268 0.102417Z" fill="white"/>
<path d="M61.6833 30.7359C60.9259 30.7872 60.424 30.8499 59.9221 30.8499C55.6637 30.8585 51.4053 30.8556 47.1439 30.8528C46.9376 30.8528 46.7313 30.8585 46.5281 30.8442C45.5212 30.7758 45.3765 30.6475 45.3026 29.7525C45.2841 29.5159 45.2933 29.2765 45.2933 29.0399C45.2933 19.9186 45.2903 10.7944 45.2995 1.67301C45.2995 1.16849 45.3949 0.663962 45.4534 0.0995789C50.8665 0.0995789 56.1317 0.0995789 61.3662 0.0995789C61.7541 1.18274 61.8126 4.09302 61.4801 5.77192C58.4749 6.03416 55.4081 5.74056 52.3845 5.92584C52.0335 6.97194 51.9565 10.4181 52.2428 12.4761C54.8447 12.65 57.4988 12.4448 60.1007 12.5873C60.5102 13.6533 60.581 16.538 60.2361 18.2682C57.6528 18.5988 54.9925 18.2368 52.3814 18.4734C52.015 19.5651 51.978 23.3191 52.3383 24.7899C52.8525 24.8127 53.4006 24.8526 53.9517 24.8555C56.1071 24.864 58.2624 24.8441 60.4178 24.8697C61.5571 24.884 61.6587 24.9838 61.6771 26.0185C61.7018 27.5292 61.6833 29.0428 61.6833 30.7359Z" fill="white"/>
<path d="M0 0.0625924C2.18307 -0.0457236 4.25529 0.0169857 6.49995 0.0283874C7.93788 5.8575 9.06482 11.6638 10.5182 17.4445C11.9869 11.7351 13.12 5.96581 14.4748 0.284925C15.7588 -0.082779 19.5583 -0.0970311 21.0332 0.267823C20.9809 0.65548 20.9562 1.06879 20.8608 1.465C18.6408 10.7574 16.4146 20.0469 14.1792 29.3364C13.8251 30.8129 13.7666 30.85 12.1501 30.8642C10.9215 30.8756 9.68988 30.887 8.46132 30.8557C7.34362 30.8272 7.28203 30.7474 7.00492 29.6044C5.91492 25.1235 4.81877 20.6455 3.73493 16.1618C2.53101 11.1764 1.33324 6.18245 0.138559 1.19136C0.0646608 0.883514 0.0585026 0.561416 0 0.0625924Z" fill="white"/>
<path d="M103.771 30.4765C103.771 28.7577 103.771 27.1102 103.771 25.3087C103.097 25.2574 102.558 25.1862 102.019 25.1833C99.9163 25.1691 97.8133 25.1862 95.7103 25.1719C95.1653 25.1691 94.6172 25.1006 93.9829 25.055C93.9829 16.729 93.9829 8.534 93.9829 0.230721C94.4047 0.168012 94.7896 0.0596956 95.1776 0.0596956C98.152 0.0454435 101.126 0.0511443 104.101 0.0568452C104.409 0.0568452 104.744 0.0226401 105.012 0.125255C105.252 0.219319 105.533 0.458755 105.588 0.678237C105.69 1.08585 105.653 1.52766 105.653 1.95238C105.656 10.8799 105.656 19.8074 105.656 28.7321C105.656 28.9687 105.662 29.2081 105.653 29.4447C105.597 30.6504 105.508 30.7074 103.771 30.4765Z" fill="white"/>
<path d="M64.0788 0.202215C65.9847 -0.0799769 77.8331 -0.0229685 79.1324 0.279176C79.311 2.02078 79.2125 3.8023 79.194 5.71493C77.7499 5.99427 76.3736 5.83465 75.0126 5.8603C73.6332 5.88595 72.2507 5.866 70.8281 5.866C70.4248 7.00617 70.6557 8.09788 70.6157 9.16679C70.5757 10.2072 70.6065 11.2504 70.6065 12.4676C73.1098 12.6728 75.5576 12.4305 78.1163 12.6215C78.1625 13.3569 78.2272 14.004 78.2395 14.6538C78.258 15.5574 78.2703 16.461 78.2303 17.3617C78.1902 18.2283 78.0609 18.3565 77.1341 18.3765C75.5453 18.4079 73.9534 18.3879 72.3615 18.3908C71.8566 18.3908 71.3485 18.3908 70.6773 18.3908C70.4987 22.521 70.7019 26.5401 70.5603 30.5079C69.2301 30.9611 65.449 30.9725 64.0819 30.5449C64.0788 20.4659 64.0788 10.3668 64.0788 0.202215Z" fill="white"/>
<path d="M81.0415 30.7758C81.0415 20.4744 81.0415 10.3839 81.0415 0.321931C82.1961 -0.0258204 85.8264 -0.09138 87.6369 0.210765C87.6831 0.624076 87.7785 1.08014 87.7785 1.53621C87.7878 10.7915 87.7847 20.044 87.7816 29.2993C87.7816 29.5844 87.8339 29.9036 87.7169 30.143C87.5845 30.4053 87.292 30.7758 87.0519 30.7901C85.072 30.8813 83.0922 30.8585 81.0415 30.7758Z" fill="white"/>
<path d="M139.64 30.6019C138.894 30.6219 138.3 30.6475 137.709 30.6504C136.323 30.6618 134.938 30.6846 133.552 30.6618C132.616 30.6447 132.493 30.5107 132.425 29.6727C132.401 29.3905 132.413 29.1026 132.413 28.8176C132.413 19.8387 132.41 10.8599 132.413 1.88395C132.413 0.0568282 132.419 0.0596786 134.35 0.0710802C135.837 0.0796315 137.324 0.0710802 138.814 0.0853323C139.153 0.0881828 139.495 0.145191 140.089 0.2022C139.587 0.561353 139.289 0.795087 138.971 1.00317C136.376 2.71627 135.523 5.12488 135.692 7.96105C135.917 11.7236 138.226 14.2633 141.361 16.327C142.365 16.9883 143.408 17.6012 144.366 18.3138C145.2 18.9352 146.022 19.6022 146.697 20.3689C147.528 21.3153 147.959 22.4212 147.531 23.6897C147.134 24.8669 146.266 25.5168 144.988 25.6764C143.769 25.8275 142.716 25.4484 142.09 24.4507C141.687 23.8065 141.472 23.0597 141.204 22.3471C141.047 21.931 140.93 21.5062 140.332 21.5034C138.602 21.5005 136.871 21.5034 135.19 21.5034C134.399 24.2569 135.957 27.4209 139.64 30.6019Z" fill="white"/>
<path d="M154.379 30.5791C152.692 30.5791 151.072 30.5791 149.142 30.5791C149.64 30.2428 149.908 30.0661 150.17 29.8836C151.78 28.7549 152.904 27.3211 153.348 25.4769C153.89 23.2136 153.997 20.9533 152.966 18.7727C152.276 17.3133 151.192 16.1018 149.844 15.1241C147.747 13.602 145.588 12.1512 143.495 10.6262C142.42 9.84232 141.65 8.84467 141.638 7.49072C141.629 6.24509 142.192 5.47547 143.291 5.22749C144.702 4.91394 145.933 5.29875 146.454 6.36481C146.805 7.08311 146.937 7.89263 147.171 8.6708C148.252 8.97009 151.331 9.02425 153.249 8.74491C153.477 7.09451 152.957 5.52963 152.344 3.9847C151.722 2.41127 150.426 1.33666 148.935 0.364669C150.17 -0.00873623 153.018 -0.0229884 154.395 0.296259C154.702 1.43643 154.73 29.0855 154.379 30.5791Z" fill="white"/>
<path d="M111.441 9.35205C112.922 15.6942 114.406 22.0393 115.909 28.467C117.975 28.467 119.952 28.467 122.113 28.467C123.745 22.1504 125.06 15.7313 126.695 9.13257C126.809 9.45752 126.898 9.59149 126.895 9.72261C126.846 11.8576 126.791 13.9897 126.729 16.1247C126.707 16.8373 126.652 17.547 126.63 18.2568C126.517 21.9566 126.412 25.6565 126.295 29.3563C126.255 30.5734 126.181 30.659 124.878 30.6647C120.98 30.6818 117.085 30.6818 113.187 30.6647C111.888 30.659 111.811 30.5734 111.771 29.3535C111.651 25.6052 111.555 21.8597 111.432 18.1114C111.352 15.6942 111.241 13.2742 111.149 10.8571C111.13 10.344 111.146 9.83377 111.146 9.3207C111.244 9.33495 111.343 9.3435 111.441 9.35205Z" fill="white"/>
<path d="M113.8 0.0881645C117.396 0.051109 120.651 0.0568099 124.041 0.0824636C124.041 0.561334 124.106 0.886282 124.032 1.18273C122.501 7.428 120.959 13.6676 119.41 19.91C119.355 20.1352 119.241 20.349 119.013 20.919C117.957 17.2534 117.205 13.8614 116.359 10.4922C115.518 7.12871 114.702 3.75951 113.8 0.0881645Z" fill="white"/>
</svg>
